<svg data-name="Capa 2" xmlns="http://www.w3.org/2000/svg" width="117.16" height="115.89" viewBox="0 0 117.16 115.89"><path d="m95.15 94.97-2.21.45.12.15c-.06-.04-.12-.09-.18-.14l-2.85.58-.53 1.21 5.55.68.11-2.93ZM68.48 7.78l4.09 4.62c.76-1.89 1.52-3.78 2.3-5.66-.23 2.37-.62 4.7-1.11 7.01l.51.58 5.79-.64-4.16-9.83-7.41 3.92ZM12.49 38.89l4.1-2.51.13-2.09c-1.49-.93-2.97-1.86-4.44-2.8 1.53.43 3.04.93 4.53 1.47l.3-4.71-7.49 1.73zM34.36 13.8l7.02 1.05c-.79-2.37-1.56-4.74-2.31-7.12 1.3 1.89 2.46 3.86 3.54 5.88l4.1-4.3L38 4.86zM29.1 99.05 28.29 97l-1.74-.42c-.25.28-.51.56-.76.84.15-.31.31-.61.46-.91l-2.62-.64.2 3.91 5.26-.73Zm70.44-72.9.12 4.56c1.09-.57 2.17-1.15 3.26-1.72a60 60 0 0 1-3.23 2.92l.08 3.12 2.88 1.92 2.91-9.51-6.02-1.3Zm11.13 35.28-1.88 2.36c.44.1.88.19 1.32.28-.54.04-1.08.06-1.61.09l-2.5 3.13.47 1.61 6.66-4.32-2.45-3.16Z" style="fill:none"/><path d="M42.61 13.61c-1.08-2.01-2.24-3.98-3.54-5.88.75 2.38 1.53 4.75 2.31 7.12h.04l1.2-1.25ZM12.28 31.5c1.48.94 2.96 1.87 4.44 2.8l.08-1.33c-1.49-.54-2.99-1.04-4.53-1.47ZM7.04 66.92c.9-.12 1.8-.25 2.7-.37l-.44-.59c-.76.31-1.51.62-2.26.96m86.02 28.64-.12-.15h-.07q.09.09.18.15Z" style="fill:#147876"/><path style="fill:#147876" d="m4.03 67.47 3.23-4.29-1.71-2.33L0 68.21l9.59 6.03.91-2.71zM38 4.86l8.71 4.45 2-2.1-12.14-6.19-5.03 12.36 2.82.42zM9.62 29.98l7.49-1.72.19-2.89-11.24 2.59 4 12.42 2.43-1.49zm95.94-2.53-2.92 9.5 2.41 1.61 4.04-13.19-9.62-2.07.07 2.85zM75.89 3.86l4.16 9.83 2.88-.32L77.26 0 66.59 5.64l1.89 2.14zm37.23 60.72-6.66 4.32.82 2.78 9.88-6.41-4.72-6.08-1.77 2.24zm-89.28 35.2-.2-3.91-2.81-.68.4 7.74 8.91-1.22-1.04-2.66zm35.94 12.01-2.72-2.92-2.59 1.28 5.34 5.74 4.8-5.29-2.51-1.36zM95.04 97.9l-5.54-.69-1.16 2.65 9.36 1.16.25-6.62-2.8.57z"/><path d="M110.1 64.07c-.44-.1-.88-.19-1.32-.28l-.3.37c.54-.03 1.08-.05 1.61-.09Zm-7.19-35.08c-1.09.57-2.17 1.14-3.26 1.72l.03 1.2c1.1-.94 2.19-1.9 3.23-2.92M74.86 6.74c-.78 1.88-1.54 3.77-2.3 5.66l1.19 1.35c.49-2.31.88-4.64 1.11-7.01" style="fill:#147876"/><path d="M83.05 26.92c.62 0 1.21.19 1.72.54 2.23-2.41 4.5-4.8 6.78-7.17-1.6 3.13-3.49 6.08-5.54 8.91.06.23.1.47.11.71l.3 11.78 7.59-4.7-.48-18.97-18.54 2.06-3.17 8.06 10.89-1.21c.11-.01.23-.02.34-.02ZM45.52 97.87h-.09c-1.42 3.4-2.88 6.78-4.38 10.15.46-3.74 1.32-7.39 2.37-10.98-.33-.31-.59-.68-.76-1.11l-3.93-10.01-5.7 7.23 6.94 17.66 16.72-8.28.25-9.96-10.05 4.98c-.43.21-.9.32-1.36.32Zm12.4-79.79c.16-3.26.36-6.51.58-9.77.76 3.3 1.19 6.64 1.45 9.99.36.18.7.42.97.73l7.55 8.55 2.66-8.05L58.57 5.31l-12.88 13.5 2.82 8.41 7.89-8.27c.42-.44.95-.73 1.52-.86ZM18.2 53.27c-3.42-.77-6.84-1.59-10.25-2.44 3.48-.18 6.95-.02 10.4.34.25-.55.66-1.03 1.19-1.35l9.01-5.51-7.35-3.95-16.19 9.9 11.05 15.03 9.65-1.45-7.04-9.58c-.22-.3-.37-.63-.47-.98Zm54.87 44.21c1.09 3.48 2.12 6.97 3.13 10.48-2.09-3.23-3.81-6.64-5.33-10.14-.28-.06-.55-.15-.81-.29l-9.85-5.36.29 9.57 16.67 9.07 7.49-17.09-5.99-7.52-4.32 9.87c-.26.6-.71 1.1-1.27 1.42ZM31.49 28.45a528 528 0 0 1-6-8.08c2.7 2.04 5.18 4.31 7.53 6.72a3.06 3.06 0 0 1 1.61-.2l10.8 1.62-3.06-7.66-18.77-2.82-1.19 18.62 7.94 4.86.75-11.77c.03-.46.17-.89.38-1.28Zm-7.64 52.1a493 493 0 0 1-9.75 4.89c2.66-2.48 5.55-4.66 8.55-6.68-.13-.56-.12-1.14.06-1.69l3.34-9.95-8.55 1.78-6.04 17.99 18.13 4.41 6.63-7.51-11.33-2.75c-.38-.09-.73-.26-1.05-.49Zm67.61-13.38 2.96 10.1c.22.74.13 1.52-.2 2.21 2.98 1.91 5.94 3.87 8.88 5.85-3.66-1.12-7.16-2.63-10.57-4.33-.15.05-.29.11-.45.14l-11.43 2.32 6.42 7.19 18.6-3.77-5.25-17.9-8.96-1.82Zm7.55-15.29c3.38-.43 6.76-.81 10.15-1.17-3.41 1.45-6.94 2.52-10.52 3.4-.07.11-.13.23-.22.34l-7.41 9.3 9.29 1.35 11.83-14.84L96.6 39.92l-7.7 4.19 8.83 5.88c.67.44 1.12 1.13 1.29 1.91Z" style="fill:none"/><path d="M57.92 18.08c.23-.05.46-.09.7-.09h.06c.45 0 .88.12 1.27.31-.26-3.36-.69-6.69-1.45-9.99-.23 3.26-.42 6.51-.58 9.77m-32.43 2.29c1.97 2.71 3.97 5.41 6 8.08.19-.35.44-.66.76-.91.24-.19.5-.33.78-.45-2.35-2.4-4.83-4.68-7.53-6.72ZM7.95 50.83c3.41.85 6.82 1.67 10.25 2.44-.13-.46-.17-.95-.07-1.43.05-.24.13-.46.22-.67-3.45-.35-6.91-.51-10.4-.34m15.9 29.72c-.37-.26-.69-.6-.92-1.01-.13-.24-.22-.5-.28-.77-3 2.02-5.89 4.2-8.55 6.68 3.27-1.6 6.52-3.22 9.75-4.89Zm21.58 17.31c-.34-.01-.69-.07-1.01-.2-.38-.14-.71-.37-1-.64-1.05 3.59-1.91 7.24-2.37 10.98 1.5-3.37 2.96-6.75 4.38-10.15Zm27.64-.38a3.1 3.1 0 0 1-1.53.42c-.22 0-.44-.03-.66-.08 1.53 3.5 3.24 6.92 5.33 10.14-1.01-3.51-2.05-7-3.13-10.48Z" style="fill:#fdbb2c"/><path d="M116.11 49.63 96.73 36.72 96.18 15l-23.14 2.57-14.4-16.29-16.08 16.85-21.49-3.23-1.49 23.24L1.06 49.48l13.8 18.76-6.91 20.6 22.63 5.5 7.95 20.22 20.87-10.33 19.09 10.38 9.35-21.33 21.3-4.32-6.55-22.35 13.54-16.99Zm-10.44 37.26-18.6 3.77-6.42-7.19-.87.18-1.12 2.55 5.99 7.52-7.49 17.09-16.67-9.07-.29-9.57-1.17-.64-2.1 1.04-.25 9.96-16.72 8.28-6.94-17.66 5.7-7.23-.66-1.67-1.85-.45-6.63 7.51-18.13-4.41 6.04-17.99 8.55-1.78.65-1.94-.99-1.35-9.65 1.45L5 50.26l16.19-9.9 7.35 3.95 1.69-1.03.11-1.76-7.94-4.86 1.19-18.62 18.77 2.82 3.06 7.66 1.61.24 1.47-1.54-2.82-8.41 12.88-13.5 12.56 14.22-2.66 8.05.76.86 2.59-.29 3.17-8.06 18.54-2.06L94 37l-7.59 4.7.02.76 2.46 1.64 7.7-4.19 15.53 10.34-11.83 14.84L91 63.74l-.41.51.85 2.91 8.96 1.82 5.25 17.9Z" style="fill:#fdbb2c"/><path d="M92.53 81.01c3.41 1.7 6.91 3.2 10.57 4.33-2.94-1.98-5.9-3.94-8.88-5.85-.04.08-.07.17-.11.24-.36.6-.92 1.04-1.58 1.28m6.48-29.13c.01.06.04.11.05.17.11.72-.05 1.44-.42 2.05 3.58-.88 7.11-1.95 10.52-3.4-3.39.36-6.77.74-10.15 1.17ZM84.77 27.46c.1.07.21.14.3.22.46.41.79.94.94 1.52 2.05-2.83 3.94-5.78 5.54-8.91-2.28 2.37-4.55 4.76-6.78 7.17" style="fill:#fdbb2c"/><path d="M58.41 53.09c.9-4.53 1.21-9.11 1.29-13.72 0-4.6-.13-9.22-1.17-13.73-.63 9.15-.98 18.3-.12 27.45m-11.65-9.83c-2.96-3.52-6.03-6.98-9.72-9.77 5.4 7.42 11.01 14.65 17.55 21.1-2.22-4.05-4.93-7.76-7.83-11.33m-7.4 11.29c-4.53-.8-9.11-1.47-13.73-1.24 8.9 2.21 17.85 4.15 27.01 4.88-4.3-1.67-8.77-2.78-13.28-3.65Zm1.58 13.41c-3.98 2.3-7.92 4.72-11.31 7.88 8.24-4.03 16.34-8.3 23.83-13.62-4.37 1.48-8.5 3.51-12.52 5.74m6.23 22.57c3.72-8.38 7.19-16.86 9.5-25.75-2.4 3.95-4.26 8.15-5.9 12.45-1.57 4.32-3.03 8.71-3.6 13.31Zm17.09-12.54c1.58 4.32 3.28 8.62 5.79 12.51-2.54-8.82-5.33-17.54-9.28-25.83.7 4.56 1.98 8.98 3.48 13.33Z" style="fill:#ee4498"/><path d="m87.21 63.59 8.81-11.06-12.61-8.4-.36-14.14-15.06 1.67-9.36-10.6-10.46 10.96-13.99-2.1-.97 15.13-12.06 7.38 8.98 12.21-4.5 13.41 14.73 3.58 5.17 13.16 13.58-6.72 12.42 6.76 6.08-13.88 13.86-2.81-4.26-14.54Zm-18.38 6.35-7.21-9.05 11.49 1.67 12.71 2.58 3.42 11.65-12.11 2.45zm16.91-7.34-12.33-1.79-11.34-2.3 9.87-6.11 11.4-6.2 10.11 6.73-7.7 9.66Zm-4.1-18.29-10.6 6.56-10.17 5.53 3.64-11.02 4.75-12.07 12.07-1.34.31 12.35ZM66.75 32.94l-3.9 11.84-4.23 10.77-4.3-10.78-4.12-12.3 8.38-8.78 8.18 9.26Zm-18.72.86 4.62 11.57 3.68 10.98-10.22-5.49-11.07-6.77.78-12.12 12.22 1.84ZM34.25 46.49l10.97 5.9 9.87 6.04-11.36 2.36-12.83 1.93-7.2-9.78 10.54-6.45Zm-2.41 18.58 12.2-2.54 11.44-1.72-7.19 9.11-8.59 9.72-11.8-2.87 3.93-11.71Zm10.11 15.78 7.71-9.78 7.66-8.68.35 11.6-.33 12.97-10.88 5.39-4.52-11.5Zm28.73 11.5-10.85-5.9L59.45 74l.3-11.57 7.73 8.66 8.08 10.15-4.87 11.12Z" style="fill:#ee4498"/><path d="M63.85 61.94c3.47 3.05 7.29 5.61 11.23 7.97 3.99 2.3 8.05 4.5 12.48 5.86-7.61-5.12-15.36-10-23.71-13.83m14.33-5.17c4.53-.8 9.06-1.73 13.32-3.53-9.12.97-18.2 2.21-27.05 4.65 4.62.1 9.19-.39 13.73-1.12m-6.07-12.06c2.96-3.53 5.83-7.15 7.93-11.27-6.37 6.6-12.52 13.39-17.74 20.95 3.6-2.89 6.79-6.2 9.8-9.68Z" style="fill:#ee4498"/></svg>